<svg width="101" height="100" viewBox="0 0 101 100" fill="none" xmlns="http://www.w3.org/2000/svg">
<path fill-rule="evenodd" clip-rule="evenodd" d="M38.4104 98.5072C65.2289 105.183 92.3418 88.8368 99.0137 62.0675C105.669 35.2818 89.3492 8.08697 62.5144 1.49281C35.7613 -5.18317 8.66477 11.1632 1.99285 37.9325C-4.67907 64.7019 11.641 91.8148 38.4104 98.5072ZM63.0653 30.9769C70.0097 33.3333 75.0751 36.8188 74.1764 43.4953C73.4901 48.3554 70.843 50.7282 67.1829 51.5627C72.1829 54.1319 74.6829 58.0265 72.3953 64.8502C69.5522 73.4086 62.5424 74.1777 53.1633 72.5086L51.0064 81.6233L45.5162 80.2978L47.6731 71.3304C46.2842 70.9867 44.83 70.6267 43.294 70.2176L41.1371 79.2505L35.647 77.925L37.8038 68.8103C37.049 68.5915 36.264 68.4029 35.4672 68.2115C34.953 68.0879 34.434 67.9632 33.9149 67.8285L26.7581 66.1594L29.3561 59.8265C29.3561 59.8265 33.4574 60.8738 33.3921 60.8083C34.9117 61.152 35.6143 60.1702 35.8921 59.4829L39.2254 45.0826C39.3316 45.1153 39.4174 45.1317 39.5032 45.1481C39.589 45.1644 39.6747 45.1808 39.7809 45.2135C39.6435 45.1182 39.5129 45.0846 39.3981 45.055C39.3353 45.0389 39.2773 45.0239 39.2254 45.0008L41.66 34.7079C41.7417 33.5951 41.3169 32.1387 39.0947 31.5824C39.2417 31.5005 35.1404 30.6005 35.1404 30.6005L36.5293 24.7586L44.0947 26.575C44.6829 26.7141 45.2752 26.8368 45.8675 26.9596C46.4599 27.0823 47.0522 27.205 47.6404 27.3441L49.7973 18.3112L55.3528 19.6367L53.2613 28.4732C54.7156 28.7678 56.1862 29.1114 57.6404 29.4551L59.7319 20.6185L65.2221 21.944L63.0653 30.9769ZM45.9746 63.8344C50.3889 64.9682 60.3433 67.5249 61.8234 61.2174C63.3131 54.8258 53.9812 52.8136 49.2989 51.804C48.7426 51.684 48.2519 51.5782 47.8528 51.4809L45.0097 63.5902C45.2891 63.6583 45.6133 63.7416 45.9746 63.8344ZM49.9287 46.1254C53.6106 47.0774 61.9914 49.2443 63.343 43.4953C64.7141 37.7253 56.8926 36.0498 53.0244 35.2211C52.5593 35.1215 52.1514 35.0341 51.8234 34.9533L49.1764 45.9335C49.3966 45.9878 49.6491 46.0531 49.9287 46.1254Z" fill="#F7931A"/>
</svg>
