<svg width="24" height="18" viewBox="0 0 24 18" fill="none" xmlns="http://www.w3.org/2000/svg">
<path fill-rule="evenodd" clip-rule="evenodd" d="M6.24338 0C5.56496 0 4.9328 0.343915 4.56424 0.913497L0.320799 7.47155C-0.0875896 8.1027 -0.107566 8.90954 0.269088 9.56013L4.57758 17.0021C4.93516 17.6197 5.59476 18 6.30844 18H21.1553C22.2599 18 23.1553 17.1046 23.1553 16V2C23.1553 0.895431 22.2599 0 21.1553 0H6.24338ZM8.7071 5.3076C8.31658 4.91708 8.31658 4.28391 8.7071 3.89339C9.09763 3.50286 9.73079 3.50286 10.1213 3.89339L13.6642 7.43628L17.1924 3.90811C17.5829 3.51758 18.2161 3.51758 18.6066 3.90811C18.9971 4.29863 18.9971 4.9318 18.6066 5.32232L15.0784 8.85049L18.6066 12.3787C18.9971 12.7692 18.9971 13.4024 18.6066 13.7929C18.2161 14.1834 17.5829 14.1834 17.1924 13.7929L13.6642 10.2647L10.1213 13.8076C9.73079 14.1981 9.09763 14.1981 8.7071 13.8076C8.31658 13.4171 8.31658 12.7839 8.7071 12.3934L12.25 8.85049L8.7071 5.3076Z" fill="black"/>
</svg>
